<svg id="Capa_1" enable-background="new 0 0 504.236 504.236" height="512" viewBox="0 0 504.236 504.236" width="512" xmlns="http://www.w3.org/2000/svg"><g><g fill="#d3cdbf"><path d="m475.193 186.846 7.542-13.607c2.008-3.623.699-8.188-2.924-10.195-3.017-1.673-6.679-1.038-8.982 1.308-32.871-97.591-124.661-164.326-229.079-164.326-64.574 0-125.283 25.146-170.943 70.807-45.661 45.661-70.807 106.369-70.807 170.943 0 54.961 17.976 106.754 51.983 149.778 32.983 41.729 79.4 71.805 130.701 84.689 11.013 2.766 22.422 4.479 34.88 5.236.155.009.309.014.462.014 3.935 0 7.237-3.065 7.479-7.045.251-4.135-2.896-7.689-7.031-7.941-11.521-.7-22.033-2.274-32.136-4.812-100.881-25.337-171.338-115.77-171.338-219.919 0-125.03 101.72-226.75 226.75-226.75 97.635 0 183.499 62.199 214.576 153.26-3.065-.54-6.266.872-7.859 3.745-2.008 3.622-.699 8.188 2.923 10.195l13.396 7.426c.399.238 2.996 1.729 6.133.726 2.739-.873 4.006-3.045 4.274-3.532z"/><path d="m369.328 78.354-290 290c-2.929 2.93-2.929 7.678 0 10.607 1.464 1.464 3.384 2.196 5.303 2.196s3.839-.732 5.303-2.196l290-290c2.929-2.93 2.929-7.678 0-10.607-2.929-2.927-7.678-2.927-10.606 0z"/></g><g fill="#46525e"><g><path d="m95.977 127.497c-30.746 0-41.193 40.02-24.981 40.02 4.14 0 7.5-3.355 7.5-7.5 0-9.639 7.842-17.48 17.48-17.48 16.08 0 23.632 20.048 11.481 30.663l-41.416 36.189c-5.202 4.546-1.976 13.147 4.935 13.147h50c4.142 0 7.5-3.396 7.5-7.539s-3.358-7.5-7.5-7.5h-29.946l26.321-22.971c22.527-19.66 8.632-57.029-21.374-57.029z"/><path d="m203.964 187.497h-12.462l-.039-52.487c-.004-4.14-3.36-7.493-7.5-7.493s-7.5 3.356-7.5 7.5v52.48h-26.903c.155-.446 12.406-35.626 12.527-36.082 2.658-10.118-11.133-13.725-14.208-4.864l-15.982 46.025c-1.69 4.87 1.932 9.96 7.085 9.96h37.479c-.002 12.842-.644 14.955 2.206 17.803 4.718 4.721 12.834 1.338 12.834-5.322v-12.48h12.462c4.143 0 7.5-3.357 7.5-7.5.001-4.295-3.454-7.54-7.499-7.54z"/></g><path d="m325.805 251.018c-1.365-2.208-3.776-3.551-6.372-3.551h-45.932c-4.138 0-7.492 3.354-7.492 7.492s3.354 7.492 7.492 7.492h33.818l-34.55 69.215c-1.848 3.702-.345 8.201 3.357 10.049 1.075.537 2.216.791 3.34.791 2.75 0 5.398-1.52 6.709-4.147l39.961-80.053c1.16-2.324 1.035-5.08-.331-7.288z"/></g><g><path d="m438.296 211.973c-12.915 2.348-22.296 13.595-22.296 26.721v24.659c0 13.13 9.39 24.381 22.308 26.729l2.998.545c-13.666 73.358-69.951 131.912-142.101 148.896-1.836-13.461-13.333-23.497-26.919-23.497h-32.573c-13.585 0-25.081 10.033-26.916 23.493-5.338 39.145 24.767 66.473 57.522 64.599 126.228-7.221 227.22-108.494 233.84-235.01 1.801-34.424-28.266-63.971-65.863-57.135z" fill="#6c7a88"/><path d="m270.319 504.118c126.228-7.221 227.22-108.494 233.84-235.01.55-10.514-1.885-20.566-6.587-29.272-12.807 2.866-22.653 13.964-23.372 27.706-5.831 111.425-94.217 200.255-205.594 206.626-13.726.785-24.759 10.684-27.579 23.48 8.803 4.718 18.912 7.064 29.292 6.47z" fill="#596775"/></g></g></svg>