<svg id="Capa_1" enable-background="new 0 0 504.5 504.5" height="512" viewBox="0 0 504.5 504.5" width="512" xmlns="http://www.w3.org/2000/svg"><g><g><path d="m123.543 318.709v82.5h289.955c8.284 0 15-6.716 15-15 0-7.283 0-60.231 0-67.5l-152.478-20.001z" fill="#8b9ba9"/><path d="m398.497 314.709v56.5h-274.954v30h289.955c8.284 0 15-6.716 15-15 0-6.902 0-60.73 0-67.5z" fill="#6c7a88"/></g><g><g><path d="m441.998 50.791h-273.453c-8.285 0-15 6.716-15 15v116.992h-100.035c-14.032 0-26.19 9.728-29.269 23.418l-11.354 50.486c-2.915 12.969-4.387 26.221-4.387 39.513v105.009h145.045c0-2.441 0-39.541 0-82.5h274.953 13.5c8.284 0 15-6.716 15-15v-237.918c0-8.285-6.716-15-15-15z" fill="#ff7e40"/><path d="m497 224.29h-40.002c0-8.706 0-17.755 0-26.917h20.001c4.143 0 7.5-3.358 7.5-7.5s-3.357-7.5-7.5-7.5h-20.001c0-9.069 0-18.113 0-26.918h30.001c4.143 0 7.5-3.358 7.5-7.5s-3.357-7.5-7.5-7.5h-30.001c0-9.569 0-18.644 0-26.917h40.002c4.143 0 7.5-3.358 7.5-7.5s-3.357-7.5-7.5-7.5h-40.002c0-11.722 0-20.639 0-25.246 0-5.045.506-10.634-2.023-15-2.595-4.479-7.428-7.5-12.977-7.5h-15v237.919h-273.453c0-52.767 0-104.502 0-105.927h-30v135.927h-22.5c-21.866 0-41.757 8.567-56.535 22.5h-36.01v60h145.045c0-2.035 0-39.305 0-82.5h92.454 195.999c5.549 0 10.382-3.021 12.977-7.5 2.529-4.366 2.023-9.955 2.023-15 0-3.089 0-8.267 0-15.002h30.001c4.143 0 7.5-3.358 7.5-7.5s-3.357-7.5-7.5-7.5h-30.001c0-8.014 0-17.115 0-26.918h40.002c4.143 0 7.5-3.358 7.5-7.5s-3.357-7.501-7.5-7.501z" fill="#ff6344"/></g><path d="m7.5 401.209h54.896v-30h-54.896c-4.142 0-7.5 3.358-7.5 7.5v15c0 4.143 3.358 7.5 7.5 7.5z" fill="#8b9ba9"/><g><path d="m123.545 212.783h-71.824l-14.261 63.417h86.085z" fill="#9dc6fb"/><path d="m95.334 246.2h-51.128l-6.746 30h86.085v-63.417h-28.211z" fill="#80b4fb"/></g></g><g><circle cx="355.996" cy="401.209" fill="#4d5967" r="52.5"/><path d="m366.73 349.817c-6.154 11.369-4.433 25.873 5.177 35.482l-31.82 31.82c-9.609-9.61-24.113-11.332-35.483-5.177 4.968 23.817 26.122 41.767 51.393 41.767 28.949 0 52.5-23.551 52.5-52.5-.001-25.271-17.95-46.424-41.767-51.392z" fill="#35404a"/><circle cx="355.996" cy="401.209" fill="#e9e3d5" r="22.5"/></g><g><circle cx="101.045" cy="401.209" fill="#4d5967" r="52.5"/><path d="m111.778 349.817c-6.154 11.369-4.433 25.873 5.177 35.482l-31.82 31.82c-9.609-9.61-24.113-11.332-35.483-5.177 4.968 23.817 26.122 41.767 51.393 41.767 28.949 0 52.5-23.551 52.5-52.5 0-25.271-17.949-46.424-41.767-51.392z" fill="#35404a"/><circle cx="101.045" cy="401.209" fill="#e9e3d5" r="22.5"/></g><g><g><circle cx="305.271" cy="185.043" fill="#4d5967" r="104.25"/><path d="m378.987 111.327-.047.047c-10.866 10.866-13.569 27.407-6.87 41.236l-98.994 99.382c-13.941-6.717-30.559-4.195-41.501 6.747l-.019.019c19.063 19.063 45.475 30.778 74.622 30.53 56.602-.481 102.858-46.737 103.34-103.338.247-29.147-11.467-55.56-30.531-74.623z" fill="#35404a"/></g><g><circle cx="305.271" cy="185.043" fill="#f4eee0" r="74.25"/><path d="m357.75 132.565c-10.399 10.399-14.311 25.661-10.105 39.753 4.503 15.087.808 32.121-11.084 44.014-11.894 11.894-28.928 15.589-44.016 11.085-14.091-4.206-29.354-.295-39.752 10.104 14.204 14.204 34.12 22.696 55.963 21.692 38.088-1.751 68.934-32.596 70.685-70.684 1.004-21.844-7.488-41.76-21.691-55.964z" fill="#d3cdbf"/></g><g fill="#4d5967"><path d="m333.271 192.543h-28c-4.142 0-7.5-3.357-7.5-7.5v-44.25c0-4.143 3.358-7.5 7.5-7.5s7.5 3.357 7.5 7.5v36.75h20.5c4.142 0 7.5 3.357 7.5 7.5s-3.358 7.5-7.5 7.5z"/><circle cx="305.271" cy="185.043" r="15"/></g></g></g></svg>