<svg id="Capa_1" enable-background="new 0 0 497 497" height="512" viewBox="0 0 497 497" width="512" xmlns="http://www.w3.org/2000/svg"><g><ellipse cx="248.5" cy="459.725" fill="#95d6a4" rx="173.95" ry="37.275"/><g><path d="m248.5 0c-98.031 0-177.5 79.462-177.5 177.484 0 35.137 10.211 67.889 27.828 95.451l124.78 195.219c11.617 18.175 38.166 18.175 49.783 0l124.78-195.219c17.618-27.562 27.829-60.314 27.829-95.451 0-98.022-79.469-177.484-177.5-177.484zm0 285.5c-60.751 0-110-49.249-110-110s49.249-110 110-110 110 49.249 110 110-49.249 110-110 110z" fill="#ffb545"/><g fill="#ff983b"><path d="m327.514 18.526c-8.031 13.176-4.759 30.53 7.925 39.801 37.921 27.719 60.561 72.263 60.561 119.157 0 28.226-7.99 55.645-23.105 79.293l-124.78 195.22c-5.928 9.274-6.11 20.571-1.475 29.729 10.145.63 20.566-3.893 26.752-13.571l124.78-195.22c17.617-27.562 27.828-60.314 27.828-95.451 0-69.634-40.112-129.891-98.486-158.958z"/><path d="m138.5 175.5c0-29.982 12.001-57.158 31.455-77-12.312-12.071-32.79-9.645-41.66 5.142-12.902 21.506-19.795 46.181-19.795 71.858 0 65.813 45.649 121.167 106.947 136.059 16.839 4.092 33.053-8.73 33.053-26.059-60.751 0-110-49.249-110-110z"/></g></g><g><path d="m222.538 190.997c-9.943 0-18.257-7.133-19.768-16.96l-7.392-48.04h105.002l-10 65z" fill="#ffcf5d"/><path d="m306.072 121.113c-1.425-1.66-3.504-2.616-5.692-2.616h-96.259c-4.381 0-8.53 1.907-11.384 5.232s-4.108 7.717-3.442 12.049l6.062 39.4c2.079 13.512 13.51 23.318 27.181 23.318h59.099l-2.308 15h-66.792c-4.143 0-7.5 3.357-7.5 7.5s3.357 7.5 7.5 7.5h7.786c-3.395.717-5.943 3.729-5.943 7.336 0 4.143 3.357 7.5 7.5 7.5 4.142 0 7.5-3.357 7.5-7.5 0-3.607-2.549-6.619-5.943-7.336h42.554c-3.395.717-5.944 3.728-5.944 7.336 0 4.143 3.358 7.5 7.5 7.5s7.5-3.357 7.5-7.5c0-3.608-2.549-6.619-5.944-7.336h16.661c3.702 0 6.85-2.701 7.413-6.359l4.59-29.838c.019-.102.034-.204.048-.307l9.979-64.855c.331-2.162-.297-4.363-1.722-6.024zm-22.127 62.384h-61.407c-6.214 0-11.41-4.458-12.354-10.6l-6.062-39.4h87.517z" fill="#ff983b"/></g></g></svg>