<svg id="Capa_1" enable-background="new 0 0 497 497" height="512" viewBox="0 0 497 497" width="512" xmlns="http://www.w3.org/2000/svg"><g><g><path id="VERTICAL_RECTANGLE_103_" d="m15 166h467v273.75h-467z" fill="#ff7c8b"/><path d="m452 409.75h-437v30h467v-273.75h-30z" fill="#ff5368"/></g><g><path d="m233.5 222.25h-173.5c-8.284 0-15 6.716-15 15v202.5h203.5v-202.5c0-8.284-6.716-15-15-15z" fill="#fff9eb"/><path d="m233.5 222.25h-15v187.5h-173.5v30h203.5v-202.5c0-8.284-6.716-15-15-15z" fill="#e9e3d5"/></g><g><path d="m437 222.25h-143.5c-8.284 0-15 6.716-15 15v117.5c0 8.284 6.716 15 15 15h143.5c8.284 0 15-6.716 15-15v-117.5c0-8.284-6.716-15-15-15z" fill="#fff9eb"/><path d="m437 222.25h-15v117.5h-143.5v15c0 8.284 6.716 15 15 15h143.5c8.284 0 15-6.716 15-15v-117.5c0-8.284-6.716-15-15-15z" fill="#e9e3d5"/></g><g><path d="m321.5 239.25h87.5v113.5h-87.5z" fill="#9dc6fb" transform="matrix(0 1 -1 0 661.25 -69.25)"/><path d="m392 309.75h-83.5v30h113.5v-87.5h-30z" fill="#80b4fb"/></g><g><path d="m53 274.25h187.5v143.5h-187.5z" fill="#9dc6fb" transform="matrix(0 1 -1 0 492.75 199.25)"/><path d="m188.5 252.25v157.5h-41.75v-157.5h-30v157.5h-41.75v30h143.5v-187.5z" fill="#80b4fb"/><path d="m146.75 244.75c-4.142 0-7.5 3.358-7.5 7.5v187.5h15v-187.5c0-4.142-3.358-7.5-7.5-7.5z" fill="#fff9eb"/></g><g><path d="m482 139.75v-37.494c0-8.284-6.716-15-15-15h-437c-8.284 0-15 6.716-15 15v37.494c-8.284 0-15 6.716-15 15v22.5c0 8.284 6.716 15 15 15h467c8.284 0 15-6.716 15-15v-22.5c0-8.284-6.716-15-15-15z" fill="#d3cdbf"/><path d="m482 139.75v-37.494c0-8.284-6.716-15-15-15h-15v22.494h-437v30h452v22.5h-467v15c0 8.284 6.716 15 15 15h467c8.284 0 15-6.716 15-15v-22.5c0-8.284-6.716-15-15-15z" fill="#c4bfb1"/></g><g><path d="m361 57.25h-225c-8.284 0-15 6.716-15 15v75c0 8.284 6.716 15 15 15h225c8.284 0 15-6.716 15-15v-75c0-8.284-6.716-15-15-15z" fill="#ff7c8b"/><path d="m361 57.25h-15v75h-225v15c0 8.284 6.716 15 15 15h225c8.284 0 15-6.716 15-15v-75c0-8.284-6.716-15-15-15z" fill="#ff5368"/><g fill="#fff9eb"><path d="m182.516 121.002c0 10.338-8.41 18.748-18.748 18.748h-11.249c-4.141 0-7.498-3.356-7.498-7.5 0-4.142 3.357-7.499 7.498-7.499h11.249c2.068 0 3.75-1.682 3.75-3.75 0-2.066-1.682-3.749-3.75-3.749-10.337 0-18.747-8.41-18.747-18.748 0-10.337 8.41-18.747 18.747-18.747h5.249c4.142 0 7.5 3.356 7.5 7.498 0 4.143-3.358 7.5-7.5 7.5h-5.249c-2.068 0-3.749 1.684-3.749 3.75 0 2.067 1.681 3.75 3.749 3.75 10.337 0 18.748 8.41 18.748 18.747z"/><path d="m237.224 87.256v44.995c0 4.143-3.357 7.5-7.498 7.5-4.143 0-7.499-3.356-7.499-7.5v-14.998h-17v14.998c0 4.143-3.359 7.5-7.5 7.5s-7.498-3.356-7.498-7.5v-44.995c0-4.142 3.357-7.498 7.498-7.498s7.5 3.356 7.5 7.498v14.999h17v-14.999c0-4.142 3.356-7.498 7.499-7.498 4.14 0 7.498 3.357 7.498 7.498z"/><path d="m303.213 109.753c0 16.541-13.457 29.997-29.997 29.997-16.539 0-29.996-13.456-29.996-29.997 0-16.54 13.457-29.996 29.996-29.996 16.54.001 29.997 13.457 29.997 29.996zm-14.999 0c0-8.27-6.729-14.998-14.998-14.998-8.271 0-14.998 6.729-14.998 14.998 0 8.27 6.728 14.999 14.998 14.999 8.269 0 14.998-6.729 14.998-14.999z"/><path d="m353.687 102.255c0 12.405-10.036 22.497-22.371 22.497h-7.125v7.499c0 4.143-3.359 7.5-7.5 7.5s-7.498-3.356-7.498-7.5v-44.995c0-4.142 3.357-7.498 7.498-7.498h14.625c12.334 0 22.371 10.092 22.371 22.497zm-15 0c0-4.136-3.308-7.5-7.372-7.5h-7.125v14.998h7.125c4.065 0 7.372-3.363 7.372-7.498z"/></g></g></g></svg>