<svg id="Capa_1" enable-background="new 0 0 497 497" height="512" viewBox="0 0 497 497" width="512" xmlns="http://www.w3.org/2000/svg"><g><g><path d="m466.757 96.516h-326.992c-12.735 0-27.758 13.515-27.758 26.25v46.251h369.75v-57.501c0-8.285-6.715-15-15-15z" fill="#a05a4b"/><g><g><path d="m315.11 49.886c-5.858-5.858-15.355-5.858-21.213 0l-110.795 110.795h242.803z" fill="#b3e59f"/><path d="m315.11 49.886c-5.858-5.858-15.355-5.858-21.213 0l-10.607 10.607 100.188 100.188h42.426z" fill="#95d6a4"/></g><g fill="#78c2a4"><path d="m352.233 118.829c-2.929-2.929-7.678-2.929-10.607 0-20.47 20.47-53.776 20.47-74.246 0-2.929-2.929-7.678-2.929-10.607 0l-41.852 41.852h21.213l26.235-26.235c24.543 19.636 59.725 19.636 84.267 0l26.235 26.235h21.213z"/><path d="m293.504 104.763c4.142 0 7.5-3.358 7.5-7.5.001-1.93 1.57-3.5 3.5-3.5s3.5 1.57 3.5 3.5c0 4.142 3.359 7.5 7.501 7.5 2.071 0 3.946-.84 5.303-2.197s2.197-3.233 2.197-5.304c-.001-10.201-8.3-18.5-18.5-18.499-10.201 0-18.5 8.3-18.5 18.5-.002 4.142 3.356 7.5 7.499 7.5z"/></g></g><g><path d="m482 149.016h-341.993c-15.298 0-26.153-11.453-28-26.25v26.25 20 200c0 8.284 6.716 15 15 15h354.993c8.284 0 15-6.716 15-15v-205c0-8.285-6.716-15-15-15z" fill="#ce795f"/><path d="m482 149.016h-15v205h-354.993v15c0 8.284 6.716 15 15 15h354.993c8.284 0 15-6.716 15-15v-205c0-8.285-6.716-15-15-15z" fill="#b66652"/></g><path d="m432.498 251.311-8.001 10c-4.383 5.478-4.383 13.263 0 18.742l8.001 10c2.847 3.558 7.156 5.629 11.713 5.629h52.789v-25-25h-52.79c-4.556 0-8.866 2.071-11.712 5.629z" fill="#a05a4b"/></g><g><g><g><circle cx="110" cy="341.507" fill="#ffcf5d" r="110"/><path d="m187.768 263.739-.634.634c-10.692 10.692-12.938 27.023-5.993 40.455 5.792 11.203 8.859 23.705 8.859 36.679 0 21.369-8.321 41.459-23.432 56.568-15.11 15.111-35.199 23.432-56.568 23.432-12.974 0-25.476-3.067-36.679-8.859-13.432-6.945-29.763-4.699-40.455 5.994l-.634.634c20.108 20.11 47.954 32.482 78.699 32.228 59.742-.495 108.569-49.321 109.065-109.062.255-30.748-12.117-58.595-32.228-78.703z" fill="#ffb545"/><circle cx="110" cy="341.506" fill="#ff983b" r="57.5"/></g></g></g><g><path d="m128.748 352.504c0 7.768-4.749 14.445-11.496 17.287v1.961c0 4.143-3.357 7.5-7.498 7.5-4.142 0-7.5-3.357-7.5-7.5v-.5h-3.502c-4.142 0-7.5-3.356-7.5-7.499 0-4.142 3.358-7.5 7.5-7.5h11.248c2.066 0 3.75-1.682 3.75-3.749 0-2.065-1.682-3.749-3.75-3.749-10.338 0-18.748-8.41-18.748-18.747 0-7.574 4.523-14.098 11.002-17.053v-1.695c0-4.143 3.357-7.498 7.5-7.498 4.141 0 7.498 3.355 7.498 7.498h2.5c4.143 0 7.5 3.356 7.5 7.5 0 4.142-3.356 7.499-7.5 7.499h-9.752c-2.068 0-3.75 1.683-3.75 3.749s1.682 3.748 3.75 3.748c10.337 0 18.748 8.411 18.748 18.748z" fill="#ffcf5d"/></g></g></svg>